# xmcd CD database file
#
# Track frame offsets:
#	150
#	14040
#	30207
#	47867
#	66884
#	77188
#	93288
#	106458
#	124663
#	137124
#
# Disc length: 1930 seconds
#
# Revision: 1
# Processed by: cddbd v1.5.2PL0 Copyright (c) Steve Scherf et al.
# Submitted via: CDex 1.70beta2
#
DISCID=8207880a
DTITLE=MoC - Men of Country - 30 #1 Hits - D2
DYEAR=2010
DGENRE=Country
TTITLE0=Moe Brandy - I Cheated Me Right Out Of You
TTITLE1=Mickey Gilley - A Headache Tomorrow [Or A Heartache Tonight)
TTITLE2=T. Graham Brown  - Don't Go To Strangers
TTITLE3=Exile - I Can't Get Close Enough
TTITLE4=Faron Young   - Hello Walls
TTITLE5=T.G. Sheppard - Party Time
TTITLE6=Jack Greene - Statue Of A Fool
TTITLE7=Doug Stone - In a Different Light
TTITLE8=Faron Young  - It's Four In The Morning
TTITLE9=Don Gibson - Blue Blue Day
EXTD=YEAR: 2010
EXTT0=
EXTT1=
EXTT2=
EXTT3=
EXTT4=
EXTT5=
EXTT6=
EXTT7=
EXTT8=
EXTT9=
PLAYORDER=
